<svg width="24" height="24" viewBox="0 0 24 24" fill="none" xmlns="http://www.w3.org/2000/svg">
<path d="M6 4L6 14M6 14C4.89543 14 4 14.8954 4 16C4 17.1046 4.89543 18 6 18M6 14C7.10457 14 8 14.8954 8 16C8 17.1046 7.10457 18 6 18M6 18L6 20M12 4V6M12 6C10.8954 6 10 6.89543 10 8C10 9.10457 10.8954 10 12 10M12 6C13.1046 6 14 6.89543 14 8C14 9.10457 13.1046 10 12 10M12 10V20M18 4V14M18 14C16.8954 14 16 14.8954 16 16C16 17.1046 16.8954 18 18 18M18 14C19.1046 14 20 14.8954 20 16C20 17.1046 19.1046 18 18 18M18 18V20" stroke="#383838" stroke-width="2" stroke-linecap="round"/>
</svg>
