<svg width="24" height="24" viewBox="0 0 24 24" fill="none" xmlns="http://www.w3.org/2000/svg">
<path d="M7.55556 8.5H15.5556M7.55556 12H12M19.1111 5H4.88889C4.65314 5 4.42705 5.09219 4.26035 5.25628C4.09365 5.42038 4 5.64294 4 5.875V15.125C4 15.3571 4.09365 15.5796 4.26035 15.7437C4.42705 15.9078 4.65314 16 4.88889 16H9L12 20L15 16H19.1111C19.3469 16 19.573 15.9078 19.7397 15.7437C19.9064 15.5796 20 15.3571 20 15.125V5.875C20 5.64294 19.9064 5.42038 19.7397 5.25628C19.573 5.09219 19.3469 5 19.1111 5Z" stroke="#383838" stroke-width="2" stroke-linecap="round" stroke-linejoin="round"/>
</svg>
