<svg width="24" height="24" viewBox="0 0 24 24" fill="none" xmlns="http://www.w3.org/2000/svg">
<path d="M6 4.00012H18M6 4.00012V20.0001M6 4.00012H5M18 4.00012V20.0001M18 4.00012H19M18 20.0001H6M18 20.0001H19M6 20.0001H5M9 7.00012H10V8.00012H9V7.00012ZM14 7.00012H15V8.00012H14V7.00012ZM9 11.0001H10V12.0001H9V11.0001ZM14 11.0001H15V12.0001H14V11.0001ZM11 15.0001H13C13.2652 15.0001 13.5196 15.1055 13.7071 15.293C13.8946 15.4806 14 15.7349 14 16.0001V20.0001H10V16.0001C10 15.7349 10.1054 15.4806 10.2929 15.293C10.4804 15.1055 10.7348 15.0001 11 15.0001Z" stroke="#383838" stroke-width="2" stroke-linecap="round" stroke-linejoin="round"/>
</svg>
