<svg width="24" height="24" viewBox="0 0 24 24" fill="none" xmlns="http://www.w3.org/2000/svg">
<path d="M4.37046 7.65669C6.43308 8.18493 6.76594 10.4627 7.57197 11.5267C8.64291 12.9403 9.64742 12.755 10.7639 14.1705C12.5694 16.4596 12.0761 19.8756 12.0761 20.8756M20 15H19C16.7909 15 15 16.7909 15 19V20M8.58661 3.99228C8.58661 4.81443 8.69943 5.87839 10.1019 6.57158C11.5044 7.26476 13.0198 6.92341 13.0198 8.90625C13.0198 9.18209 13.0198 10.9141 14.9922 10.9141C17.0177 10.9453 17.0177 9.2358 17.0177 8.90625C17.0177 8.25611 17.5447 8.00631 18.1949 8.00631H20M21 12C21 16.9706 16.9706 21 12 21C7.02944 21 3 16.9706 3 12C3 7.02944 7.02944 3 12 3C16.9706 3 21 7.02944 21 12Z" stroke="#383838" stroke-width="2" stroke-linecap="round"/>
</svg>
