<svg width="24" height="24" viewBox="0 0 24 24" fill="none" xmlns="http://www.w3.org/2000/svg">
<path d="M7.92578 10.8984L15 7.72657M7.92578 13.1172L15 16.2891M8 12C8 13.3807 6.88071 14.5 5.5 14.5C4.11929 14.5 3 13.3807 3 12C3 10.6193 4.11929 9.5 5.5 9.5C6.88071 9.5 8 10.6193 8 12ZM20 17.5C20 18.8807 18.8807 20 17.5 20C16.1193 20 15 18.8807 15 17.5C15 16.1193 16.1193 15 17.5 15C18.8807 15 20 16.1193 20 17.5ZM20 6.5C20 7.88071 18.8807 9 17.5 9C16.1193 9 15 7.88071 15 6.5C15 5.11929 16.1193 4 17.5 4C18.8807 4 20 5.11929 20 6.5Z" stroke="#383838" stroke-width="2" stroke-linecap="round"/>
</svg>
