<svg width="24" height="24" viewBox="0 0 24 24" fill="none" xmlns="http://www.w3.org/2000/svg">
<path d="M11.0832 5.10395C11.4321 4.30322 12.5679 4.30322 12.9168 5.10395L14.6691 9.12569C14.817 9.46513 15.1404 9.69506 15.5096 9.72331L19.9717 10.0648C20.8714 10.1336 21.227 11.2648 20.5284 11.836L17.1986 14.5587C16.8989 14.8038 16.7676 15.1997 16.8615 15.5753L17.8907 19.6938C18.1052 20.5522 17.1812 21.2458 16.4168 20.8002L12.5037 18.5187C12.1924 18.3372 11.8076 18.3372 11.4963 18.5187L7.58318 20.8002C6.8188 21.2458 5.89482 20.5522 6.10934 19.6938L7.13854 15.5753C7.23239 15.1997 7.10105 14.8038 6.80137 14.5587L3.47155 11.836C2.77301 11.2648 3.12855 10.1336 4.02825 10.0648L8.49041 9.72331C8.8596 9.69506 9.18295 9.46513 9.33086 9.12569L11.0832 5.10395Z" stroke="#383838" stroke-width="2"/>
</svg>
